# xmcd
#
# Track frame offsets: 
#        150
#        16063
#        31143
#        47855
#        64946
#        82271
#        97213
#        112227
#        130748
#        144890
#        162575
#        176727
#        205502
#
# Disc length: 2767 seconds
#
# Revision: 0
# Processed by: cddbd v1.5.2PL0 Copyright (c) Steve Scherf et al.
# Submitted via: ExactAudioCopy v0.99pb2
#
DISCID=b70acd0d
DTITLE=Tish Hinojosa - Our Little Planet
DYEAR=2008
DGENRE=Blues
TTITLE0=What You Don't Know
TTITLE1=Road Songs and Bygones
TTITLE2=Mi Pueblo
TTITLE3=Mountain Lullaby
TTITLE4=We Mostly Feel That Way
TTITLE5=Our Little Planet
TTITLE6=What Our Hearts Can't Say
TTITLE7=I Hope Forever You'll Be Mine
TTITLE8=Count Me In
TTITLE9=Turned My Heart Away
TTITLE10=Tomorrow's Gonna Come
TTITLE11=Is Time Being Kind
TTITLE12=Data
EXTD=
EXTT0=
EXTT1=
EXTT2=
EXTT3=
EXTT4=
EXTT5=
EXTT6=
EXTT7=
EXTT8=
EXTT9=
EXTT10=
EXTT11=
EXTT12=
PLAYORDER=
